<svg xmlns="http://www.w3.org/2000/svg" viewBox="0 0 83.3 75"><defs><style>.cls-1{fill:#1abce8;}.cls-2{fill:#22d1a3;}.cls-3{fill:#3addc9;}</style></defs><title>资源 35</title><g id="图层_2" data-name="图层 2"><g id="图层_1-2" data-name="图层 1"><path class="cls-1" d="M61.11,11.39h9.83a0,0,0,0,1,0,0V21.1a0,0,0,0,1,0,0H56.34a0,0,0,0,1,0,0V16.15A4.76,4.76,0,0,1,61.11,11.39Z"/><path class="cls-1" d="M73.61,23.62h4.46a5.24,5.24,0,0,1,5.24,5.24v9.53a0,0,0,0,1,0,0h-9.7a0,0,0,0,1,0,0V23.62A0,0,0,0,1,73.61,23.62Z"/><path class="cls-2" d="M7.17,45.73A30.76,30.76,0,0,1,37.93,15h.3A14.42,14.42,0,0,0,49,9.34a14.72,14.72,0,0,0,1.4-2.27,14.27,14.27,0,0,0,1.41-4.22h0V0H37.5l-.75,0-1.1,0h0l-.7.05-.21,0h-.09l-.79.06h-.09c-.43,0-.86.1-1.28.16h-.09L32,.4H31.9c-.5.07-1,.16-1.48.26l-.11,0-.09,0-.1,0h0C29.55.84,29,1,28.47,1.1h-.14l-.16,0q-1.12.29-2.2.64h0l-.36.12h0c-.79.27-1.58.55-2.35.87h0l-.16.07h0c-.69.29-1.36.61-2,.93l-.11.05-.12.06,0,0-.1,0,0,0-.14.08a37.49,37.49,0,0,0-4.31,2.58l-.06,0h0L16,6.81l0,0-.07.05a37.57,37.57,0,0,0-4.39,3.64L11,11h0l0,0h0l-.47.5L10,12l-.15.15h0l-.18.19-.5.58L9,13.16l-.51.59-.25.33-.06.07L8,14.3,8,14.37H8l-.09.11v0l-.32.41-.21.27c-.18.25-.36.5-.54.76h0l-.18.25,0,0-.15.21h0l-.09.13,0,.07c-.15.22-.29.45-.43.68h0c-.18.29-.37.57-.54.86l-.14.24,0,0h0l-.11.17,0,0-.11.21c-.14.25-.27.52-.41.77s-.29.51-.42.77v0l-.17.34,0,0,0,0-.18.36c-.17.35-.31.71-.47,1.06s-.25.53-.36.79h0l-.06.17,0,.11-.07.15-.11.3,0,0c-.15.39-.28.79-.42,1.19-.06.18-.14.35-.2.53l0,.14,0,.09v0l-.1.31,0,.1-.06.2c-.13.43-.24.88-.36,1.32-.06.21-.12.42-.17.64l-.06.23,0,.08L1,29.05l-.07.31c-.08.35-.14.7-.2,1.05,0,.17-.08.34-.11.52l0,.15s0,.09,0,.14l0,.09,0,.29v0l0,.28c-.06.38-.09.76-.13,1.14,0,.2-.06.4-.08.6s0,.17,0,.26,0,.23,0,.35v.06c0,.12,0,.25,0,.37v.22c0,.25,0,.51,0,.77s0,.39,0,.58,0,.26,0,.39,0,.45,0,.67c0,0,0,.06,0,.09v0s0,0,0,0H0v.07c0,.24,0,.48,0,.72v.17c0,.3,0,.6,0,.89H0c0,.29,0,.57.06.86v.08c0,.29,0,.59.07.88h0c0,.17,0,.33.06.5s0,.07,0,.1l0,.2v.08l0,.24h0c0,.22.05.45.08.67h0c.06.4.13.8.2,1.21h0c0,.19.06.38.1.57h0c.08.4.17.81.27,1.21H1c0,.19.08.38.13.57h0c0,.14.08.28.11.42s0,.13,0,.19v0l.06.21.07.27,0,.07c.05.18.1.37.16.55h0c.11.35.22.7.34,1l.07.2.17.5h0c.11.31.23.62.35.92l.12.3.2.5h0l.13.3.06.16.14.31,0,0,.13.29c.09.2.18.41.27.61h0l.32.66.17.32h0l0,0,0,0,.3.58h0l.31.55.3.53.3.51h0l.16.26,0,.08.28.44.05.08h0l.08.12.36.56h0l.33.47.32.45.4.56h0l.4.52.29.38.42.53h0l.32.37,0,0L9.1,62l.11.13.07.09.42.48h0q.62.69,1.28,1.35h0q.66.66,1.34,1.27l.49.42.15.13.07.06.26.22h0l0,0,.38.32.54.42.38.29.52.4.57.4.45.32.47.33.57.36.12.08h0l.08.05.44.28.08,0,.26.16.52.3.53.3.43.24A30.72,30.72,0,0,1,7.17,45.73Z"/><path class="cls-3" d="M71.33,31.55V23.43H47V32a6.45,6.45,0,0,0,6.45,6.45h3.91V44A13,13,0,0,1,54,52.88,22.44,22.44,0,0,1,37.5,60,22.49,22.49,0,0,1,15,37.54,22.42,22.42,0,0,1,21.23,22l.11-.11q.57-.59,1.18-1.13l.22-.19q.51-.44,1-.85l.37-.29c.33-.24.66-.47,1-.7l.59-.38.85-.5c.32-.18.65-.35,1-.52h0c.52-.26,1.4-.64,1.94-.84l.24-.09a22.2,22.2,0,0,1,2.42-.76l.08,0q.59-.14,1.18-.25c.43-.08.86-.15,1.3-.2l.94-.09c.46,0,.92-.06,1.39-.07h.63c.18,0,.35,0,.53,0h-.3A30.76,30.76,0,0,0,19.71,70.51l.12.07.6.31h0l0,0h0l.33.17.66.32.62.28.29.13h0l.31.14.15.06.3.13.51.2.3.12.92.35.51.17.2.07,1,.34.56.16.07,0,.28.07.21.06h0l.19,0,.43.11.58.13,1.21.26.59.1,1.21.2.69.09.24,0h.08l.2,0h.1l.5.06.89.07h.08l.86.06,1,0h.11l.72,0h.27l.66,0h.39l.57,0,.78,0h.14l.51,0,.35,0,.26,0,.59-.08c.38,0,.77-.08,1.15-.14h0A35.75,35.75,0,0,0,71.21,42.41l.06-.07v-1.2c0-.51.05-.07.05-.58s0-.79,0-1.18l0,.07v-7.6C71.29,31.74,71.32,31.65,71.33,31.55Z"/></g></g></svg>