<svg xmlns="http://www.w3.org/2000/svg" viewBox="0 0 222.71 75"><defs><style>.cls-1{fill:#353a39;}.cls-2{fill:#1abce8;}.cls-3{fill:#22d1a3;}.cls-4{fill:#3addc9;}</style></defs><title>资源 36</title><g id="图层_2" data-name="图层 2"><g id="图层_1-2" data-name="图层 1"><path class="cls-1" d="M152.25,19.54h1.47a2,2,0,0,1,2,2V35a.07.07,0,0,1-.07.07h0a3.45,3.45,0,0,1-3.45-3.45v-12a.07.07,0,0,1,.07-.07Z" transform="translate(4.26 72.49) rotate(-26.85)"/><path class="cls-1" d="M193.87,22.24V20.3h12.26v-10a2,2,0,0,1,2-2h2v12h11.2a1.19,1.19,0,0,1,1.19,1.19v1.94H210.09V34h9.46a1.19,1.19,0,0,1,1.19,1.19V37H196.8a1.19,1.19,0,0,1-1.19-1.19V34h10.52V23.43H195.06A1.19,1.19,0,0,1,193.87,22.24Z"/><path class="cls-1" d="M100,63.45a8.28,8.28,0,0,1-2-5.64,8.38,8.38,0,0,1,2-5.67,6.38,6.38,0,0,1,4.94-2.33,6,6,0,0,1,3.85,1.33,5.25,5.25,0,0,1,2,3.33h-.16a1.06,1.06,0,0,1-1-.68,4.21,4.21,0,0,0-1.49-2,5.11,5.11,0,0,0-3.21-1.05,5.35,5.35,0,0,0-4.22,2.05,7.9,7.9,0,0,0,0,9.95,5.35,5.35,0,0,0,4.22,2.05,4.66,4.66,0,0,0,3.6-1.67,5.73,5.73,0,0,0,1.49-4v-.38h-5.09v-.5a.47.47,0,0,1,.47-.47h5.39v7.12a.47.47,0,0,1-.47.47H110V62.27a4.9,4.9,0,0,1-2,2.54,5.33,5.33,0,0,1-3.13,1A6.38,6.38,0,0,1,100,63.45Z"/><path class="cls-1" d="M114.37,63.45a8.47,8.47,0,0,1-1.79-5.64A8.89,8.89,0,0,1,114.37,52a6.31,6.31,0,0,1,9.54,0,8.89,8.89,0,0,1,1.79,5.82,8.48,8.48,0,0,1-1.79,5.64,6.41,6.41,0,0,1-9.54,0Zm8.82-.69a7.56,7.56,0,0,0,1.52-4.95,8,8,0,0,0-1.52-5.1,5.22,5.22,0,0,0-8.1,0,8,8,0,0,0-1.52,5.1,7.56,7.56,0,0,0,1.52,4.95,5.32,5.32,0,0,0,8.1,0Z"/><path class="cls-1" d="M125.8,65.39l5.84-15.21h1.24l5.76,15.21H138a.71.71,0,0,1-.66-.45l-1.71-4.42H128.8l-1.71,4.4a.74.74,0,0,1-.69.47Zm9.44-5.85-3-8.18-3.11,8.18Z"/><path class="cls-1" d="M140.29,50.19h.52a.47.47,0,0,1,.47.47V64.42h7.92v.5a.47.47,0,0,1-.47.47h-8.45Z"/><path class="cls-1" d="M160.66,65.39V50.19H162l8.89,13.95V50.66a.47.47,0,0,1,.47-.47h.52V65.39h-1.37l-8.89-13.74V64.89a.5.5,0,0,1-.5.5Z"/><path class="cls-1" d="M176.08,64.24a5,5,0,0,1-1.61-3.72V50.19H175a.47.47,0,0,1,.47.47v9.86a4,4,0,0,0,1.34,3.05A4.47,4.47,0,0,0,180,64.83a4.26,4.26,0,0,0,3.08-1.26,4.14,4.14,0,0,0,1.27-3.05V50.66a.47.47,0,0,1,.47-.47h.52V60.52a5,5,0,0,1-1.56,3.72A5.19,5.19,0,0,1,180,65.78,5.54,5.54,0,0,1,176.08,64.24Z"/><path class="cls-1" d="M187.9,65.39V50.19h7a3.36,3.36,0,0,1,2.58,1.18,4,4,0,0,1,1.07,2.82,4.84,4.84,0,0,1-.65,2.54A2.49,2.49,0,0,1,196.28,58a2.5,2.5,0,0,1,1.49,1.62,8.46,8.46,0,0,1,.57,3.28q0,1.08,0,1.62a2.28,2.28,0,0,0,.2.9h-1a2.19,2.19,0,0,1-.32-1.13l-.07-2.18a4.73,4.73,0,0,0-.72-2.64,2,2,0,0,0-1.71-1.08H188.9v7Zm6.86-8a2.64,2.64,0,0,0,2-.92,3.15,3.15,0,0,0,.82-2.21,3.21,3.21,0,0,0-.82-2.21,2.67,2.67,0,0,0-2-.9H188.9v6.23Z"/><path class="cls-1" d="M201.74,64.29a4.76,4.76,0,0,1-1.52-3.56h0a1.09,1.09,0,0,1,1.07.87,4,4,0,0,0,1.18,2.08,4.28,4.28,0,0,0,3.2,1.15,5,5,0,0,0,2.88-1,3.06,3.06,0,0,0,1.32-2.49,2.52,2.52,0,0,0-1.17-2.1,6,6,0,0,0-3.08-1,6.65,6.65,0,0,1-3.78-1.38,3.65,3.65,0,0,1,0-5.8,5.24,5.24,0,0,1,3.48-1.2,5.81,5.81,0,0,1,3.75,1.26,3.79,3.79,0,0,1,1.54,3h0a1.21,1.21,0,0,1-1.13-.86,3.17,3.17,0,0,0-1.13-1.48,4.76,4.76,0,0,0-3-1,4.35,4.35,0,0,0-2.78.92,2.71,2.71,0,0,0-1.14,2.21,2.59,2.59,0,0,0,1.19,2.15,6.41,6.41,0,0,0,3.21,1.05,6.53,6.53,0,0,1,3.68,1.36,3.59,3.59,0,0,1,1.37,2.85,3.94,3.94,0,0,1-1.61,3.15,6,6,0,0,1-3.9,1.31A4.94,4.94,0,0,1,201.74,64.29Z"/><path class="cls-1" d="M213.1,65.39V50.19h9.61a1,1,0,0,1-1,1h-7.62V57H222v.43a.51.51,0,0,1-.51.51h-7.36v6.44h7.65a1,1,0,0,1,1,1H213.1Z"/><path class="cls-1" d="M172.74,22.09,172,20.58a1.27,1.27,0,0,0-1.67-.65l-.44.23V15.27h2.66V13.85a1.19,1.19,0,0,0-1.19-1.19h-1.47V8.44h-1.94a2,2,0,0,0-2,2v2.25h-3.11v1.42A1.19,1.19,0,0,0,164,15.27h1.93v6.91l-3.86,2,.78,1.51a1.27,1.27,0,0,0,1.67.65l1.41-.73v7.87c.08.83-.33,1.2-1.24,1.12h-1.37v2.49h2.74c2.4,0,3.8-1.12,3.8-3.36V23.58Z"/><path class="cls-1" d="M126.6,13v-1.3a1.19,1.19,0,0,0-1.19-1.19H116.9l.37-1.12q.25-.62.37-1h-4c-.5,2.65-1.91,4-4.23,5.86v3.34q1.49-.75,2.86-1.49a36.73,36.73,0,0,0,3.48,3.73,24.68,24.68,0,0,1-6,2.13l-4-6.85h2.93v-1.3a1.11,1.11,0,0,0-1.09-1.19h-1.92V8.31h-1.84a1.89,1.89,0,0,0-1.9,1.78v2.57H99V14a1.19,1.19,0,0,0,1.19,1.19h1.76L97.6,24.3A2.69,2.69,0,0,0,101.18,23l.84-1.78,0,1.46V37h1.7a2,2,0,0,0,2-1.78V20.4l1.68,2.91a2.69,2.69,0,0,0,2.37,1.34h.05l.29,0a22.12,22.12,0,0,0,8.47-3,35.94,35.94,0,0,0,9.08,3.11V22a38.48,38.48,0,0,1-6.22-2.13A17.4,17.4,0,0,0,126.6,13Zm-8.36,5a19.49,19.49,0,0,1-3.85-4l.62-.62.25-.25h6.84A14.46,14.46,0,0,1,118.24,18Z"/><path class="cls-1" d="M110.56,28.26V37.2h11.56q4.1.12,4-4.1v-8H113.72A3.17,3.17,0,0,0,110.56,28.26Zm3.45-.56h8.08v5.14a1.53,1.53,0,0,1-1.74,1.87H114Z"/><path class="cls-1" d="M156.74,11H140.12c.28-.64.47-1.13.6-1.53,0-.13.09-.25.15-.37s.18-.5.25-.71L137,8.49c-.83,3.57-2.78,4.75-5.84,6.07L131,18q5.22-1.24,7.46-4.23h16v2.56a1.79,1.79,0,0,0,1.79,1.79h2.19V12.83A1.78,1.78,0,0,0,156.74,11Z"/><path class="cls-1" d="M143.23,18.55V32.89q.12,1.62-1.74,1.49h-2v2.74H143c3,.08,4.22-1.37,4.13-4.35V16.57h-1.91A2,2,0,0,0,143.23,18.55Z"/><path class="cls-1" d="M141,21.14l-1.32-.67a2,2,0,0,0-2.66.87l-6.11,12.06a.07.07,0,0,0,0,.09h0A3.45,3.45,0,0,0,135.58,32L141,21.23A.07.07,0,0,0,141,21.14Z"/><path class="cls-1" d="M184.87,10.51V8.15H182.3a1.41,1.41,0,0,0-1.41,1.41v1h-3.18A3.26,3.26,0,0,0,174.55,14V28.59A4.39,4.39,0,0,1,172.31,33v4.07a9.69,9.69,0,0,0,6.22-9.88V24.42h8.08q4.35.13,4.23-4.23V10.51Zm2.36,9.43a2,2,0,0,1-2,2h-6.71V13.12h8.7Z"/><path class="cls-2" d="M61.11,11.39h9.83a0,0,0,0,1,0,0V21.1a0,0,0,0,1,0,0H56.34a0,0,0,0,1,0,0V16.15A4.76,4.76,0,0,1,61.11,11.39Z"/><path class="cls-2" d="M73.61,23.62h4.46a5.24,5.24,0,0,1,5.24,5.24v9.53a0,0,0,0,1,0,0h-9.7a0,0,0,0,1,0,0V23.62A0,0,0,0,1,73.61,23.62Z"/><path class="cls-3" d="M7.17,45.73A30.76,30.76,0,0,1,37.93,15h.3A14.42,14.42,0,0,0,49,9.34a14.72,14.72,0,0,0,1.4-2.27,14.27,14.27,0,0,0,1.41-4.22h0V0H37.5l-.75,0-1.1,0h0l-.7.05-.21,0h-.09l-.79.06h-.09c-.43,0-.86.1-1.28.16h-.09L32,.4H31.9c-.5.07-1,.16-1.48.26l-.11,0-.09,0-.1,0h0C29.55.84,29,1,28.47,1.1h-.14l-.16,0q-1.12.29-2.2.64h0l-.36.12h0c-.79.27-1.58.55-2.35.87h0l-.16.07h0c-.69.29-1.36.61-2,.93l-.11.05-.12.06,0,0-.1,0,0,0-.14.08a37.49,37.49,0,0,0-4.31,2.58l-.06,0h0L16,6.81l0,0-.07.05a37.57,37.57,0,0,0-4.39,3.64L11,11h0l0,0h0l-.47.5L10,12l-.15.15h0l-.18.19-.5.58L9,13.16l-.51.59-.25.33-.06.07L8,14.3,8,14.37H8l-.09.11v0l-.32.41-.21.27c-.18.25-.36.5-.54.76h0l-.18.25,0,0-.15.21h0l-.09.13,0,.07c-.15.22-.29.45-.43.68h0c-.18.29-.37.57-.54.86l-.14.24,0,0h0l-.11.17,0,0-.11.21c-.14.25-.27.52-.41.77s-.29.51-.42.77v0l-.17.34,0,0,0,0-.18.36c-.17.35-.31.71-.47,1.06s-.25.53-.36.79h0l-.06.17,0,.11-.07.15-.11.3,0,0c-.15.39-.28.79-.42,1.19-.06.18-.14.35-.2.53l0,.14,0,.09v0l-.1.31,0,.1-.06.2c-.13.43-.24.88-.36,1.32-.06.21-.12.42-.17.64l-.06.23,0,.08L1,29.05l-.07.31c-.08.35-.14.7-.2,1.05,0,.17-.08.34-.11.52l0,.15s0,.09,0,.14l0,.09,0,.29v0l0,.28c-.06.38-.09.76-.13,1.14,0,.2-.06.4-.08.6s0,.17,0,.26,0,.23,0,.35v.06c0,.12,0,.25,0,.37v.22c0,.25,0,.51,0,.77s0,.39,0,.58,0,.26,0,.39,0,.45,0,.67c0,0,0,.06,0,.09v0s0,0,0,0H0v.07c0,.24,0,.48,0,.72v.17c0,.3,0,.6,0,.89H0c0,.29,0,.57.06.86v.08c0,.29,0,.59.07.88h0c0,.17,0,.33.06.5s0,.07,0,.1l0,.2v.08l0,.24h0c0,.22.05.45.08.67h0c.06.4.13.8.2,1.21h0c0,.19.06.38.1.57h0c.08.4.17.81.27,1.21H1c0,.19.08.38.13.57h0c0,.14.08.28.11.42s0,.13,0,.19v0l.06.21.07.27,0,.07c.05.18.1.37.16.55h0c.11.35.22.7.34,1l.07.2.17.5h0c.11.31.23.62.35.92l.12.3.2.5h0l.13.3.06.16.14.31,0,0,.13.29c.09.2.18.41.27.61h0l.32.66.17.32h0l0,0,0,0,.3.58h0l.31.55.3.53.3.51h0l.16.26,0,.08.28.44.05.08h0l.08.12.36.56h0l.33.47.32.45.4.56h0l.4.52.29.38.42.53h0l.32.37,0,0L9.1,62l.11.13.07.09.42.48h0q.62.69,1.28,1.35h0q.66.66,1.34,1.27l.49.42.15.13.07.06.26.22h0l0,0,.38.32.54.42.38.29.52.4.57.4.45.32.47.33.57.36.12.08h0l.08.05.44.28.08,0,.26.16.52.3.53.3.43.24A30.72,30.72,0,0,1,7.17,45.73Z"/><path class="cls-4" d="M71.33,31.55V23.43H47V32a6.45,6.45,0,0,0,6.45,6.45h3.91V44A13,13,0,0,1,54,52.88,22.44,22.44,0,0,1,37.5,60,22.49,22.49,0,0,1,15,37.54,22.42,22.42,0,0,1,21.23,22l.11-.11q.57-.59,1.18-1.13l.22-.19q.51-.44,1-.85l.37-.29c.33-.24.66-.47,1-.7l.59-.38.85-.5c.32-.18.65-.35,1-.52h0c.52-.26,1.4-.64,1.94-.84l.24-.09a22.2,22.2,0,0,1,2.42-.76l.08,0q.59-.14,1.18-.25c.43-.08.86-.15,1.3-.2l.94-.09c.46,0,.92-.06,1.39-.07h.63c.18,0,.35,0,.53,0h-.3A30.76,30.76,0,0,0,19.71,70.51l.12.07.6.31h0l0,0h0l.33.17.66.32.62.28.29.13h0l.31.14.15.06.3.13.51.2.3.12.92.35.51.17.2.07,1,.34.56.16.07,0,.28.07.21.06h0l.19,0,.43.11.58.13,1.21.26.59.1,1.21.2.69.09.24,0h.08l.2,0h.1l.5.06.89.07h.08l.86.06,1,0h.11l.72,0h.27l.66,0h.39l.57,0,.78,0h.14l.51,0,.35,0,.26,0,.59-.08c.38,0,.77-.08,1.15-.14h0A35.75,35.75,0,0,0,71.21,42.41l.06-.07v-1.2c0-.51.05-.07.05-.58s0-.79,0-1.18l0,.07v-7.6C71.29,31.74,71.32,31.65,71.33,31.55Z"/></g></g></svg>